<svg width="800" height="120" style="margin: 1em 0px 1em -40px;" xmlns="http://www.w3.org/2000/svg"><g class="left" transform="translate(40,0)"><g class="link"><path class="to-array from-selection" d="M51.4677734375,60C75.73388671875,60 75.73388671875,60 100,60"></path><path class="to-element from-array" d="M137.576171875,60C168.7880859375,60 168.7880859375,12 200,12"></path><path class="to-element from-array" d="M137.576171875,60C168.7880859375,60 168.7880859375,36 200,36"></path><path class="to-element from-array" d="M137.576171875,60C168.7880859375,60 168.7880859375,60 200,60"></path><path class="to-element from-array" d="M137.576171875,60C168.7880859375,60 168.7880859375,84 200,84"></path><path class="to-element from-array" d="M137.576171875,60C168.7880859375,60 168.7880859375,108 200,108"></path><path class="to-key from-element" d="M247.576171875,12C273.7880859375,12 273.7880859375,12 300,12"></path><path class="to-key from-element" d="M247.576171875,36C273.7880859375,36 273.7880859375,36 300,36"></path><path class="to-key from-element" d="M247.576171875,60C273.7880859375,60 273.7880859375,60 300,60"></path><path class="to-key from-element" d="M247.576171875,84C273.7880859375,84 273.7880859375,84 300,84"></path><path class="to-key from-element" d="M247.576171875,108C273.7880859375,108 273.7880859375,108 300,108"></path></g><g class="node"><g class="selection" transform="translate(0,60)"><rect ry="6" rx="6" y="-10" height="20" width="51.4677734375"></rect><text dy=".35em" x="6">selection</text></g><g class="array" transform="translate(100,60)"><rect ry="6" rx="6" y="-10" height="20" width="37.576171875"></rect><text dy=".35em" x="6">group</text></g><g class="element" transform="translate(200,12)"><rect ry="6" rx="6" y="-10" height="20" width="47.576171875"></rect><text dy=".35em" x="6">element</text></g><g class="key" transform="translate(300,12)"><rect ry="6" rx="6" y="-10" height="20" width="32"></rect><path class="join" d="M32,0C60,0 60,0 88,0"></path><text dy=".35em" x="6">0</text></g><g class="element" transform="translate(200,36)"><rect ry="6" rx="6" y="-10" height="20" width="47.576171875"></rect><text dy=".35em" x="6">element</text></g><g class="key" transform="translate(300,36)"><rect ry="6" rx="6" y="-10" height="20" width="32"></rect><path class="join" d="M32,0C60,0 60,0 88,0"></path><text dy=".35em" x="6">1</text></g><g class="element" transform="translate(200,60)"><rect ry="6" rx="6" y="-10" height="20" width="47.576171875"></rect><text dy=".35em" x="6">element</text></g><g class="key" transform="translate(300,60)"><rect ry="6" rx="6" y="-10" height="20" width="32"></rect><path class="join" d="M32,0C60,0 60,0 88,0"></path><text dy=".35em" x="6">2</text></g><g class="element" transform="translate(200,84)"><rect ry="6" rx="6" y="-10" height="20" width="47.576171875"></rect><text dy=".35em" x="6">element</text></g><g class="key" transform="translate(300,84)"><rect ry="6" rx="6" y="-10" height="20" width="32"></rect><path class="join" d="M32,0C60,0 60,0 88,0"></path><text dy=".35em" x="6">3</text></g><g class="element" transform="translate(200,108)"><rect ry="6" rx="6" y="-10" height="20" width="47.576171875"></rect><text dy=".35em" x="6">element</text></g><g class="key" transform="translate(300,108)"><rect ry="6" rx="6" y="-10" height="20" width="32"></rect><path class="join" d="M32,0C60,0 60,0 88,0"></path><text dy=".35em" x="6">4</text></g></g></g><g class="right" transform="translate(760,0)"><g class="link"><path class="to-array from-data" d="M-32,60C-66,60 -66,60 -100,60"></path><path class="to-datum from-array" d="M-134.783203125,60C-167.3916015625,60 -167.3916015625,12 -200,12"></path><path class="to-datum from-array" d="M-134.783203125,60C-167.3916015625,60 -167.3916015625,36 -200,36"></path><path class="to-datum from-array" d="M-134.783203125,60C-167.3916015625,60 -167.3916015625,60 -200,60"></path><path class="to-datum from-array" d="M-134.783203125,60C-167.3916015625,60 -167.3916015625,84 -200,84"></path><path class="to-datum from-array" d="M-134.783203125,60C-167.3916015625,60 -167.3916015625,108 -200,108"></path><path class="to-key from-datum" d="M-232,12C-266,12 -266,12 -300,12"></path><path class="to-key from-datum" d="M-232,36C-266,36 -266,36 -300,36"></path><path class="to-key from-datum" d="M-232,60C-266,60 -266,60 -300,60"></path><path class="to-key from-datum" d="M-232,84C-266,84 -266,84 -300,84"></path><path class="to-key from-datum" d="M-232,108C-266,108 -266,108 -300,108"></path></g><g class="node"><g class="data" transform="translate(0,60)"><rect ry="6" rx="6" y="-10" height="20" width="32" x="-32"></rect><text dy=".35em" x="-26">data</text></g><g class="array" transform="translate(-100,60)"><rect ry="6" rx="6" y="-10" height="20" width="34.783203125" x="-34.783203125"></rect><text dy=".35em" x="-28.783203125">array</text></g><g class="datum" transform="translate(-200,12)"><rect ry="6" rx="6" y="-10" height="20" width="32" x="-32"></rect><text dy=".35em" x="-26">4</text></g><g class="key" transform="translate(-300,12)"><rect ry="6" rx="6" y="-10" height="20" width="32" x="-32"></rect><text dy=".35em" x="-26">0</text></g><g class="datum" transform="translate(-200,36)"><rect ry="6" rx="6" y="-10" height="20" width="32" x="-32"></rect><text dy=".35em" x="-26">5</text></g><g class="key" transform="translate(-300,36)"><rect ry="6" rx="6" y="-10" height="20" width="32" x="-32"></rect><text dy=".35em" x="-26">1</text></g><g class="datum" transform="translate(-200,60)"><rect ry="6" rx="6" y="-10" height="20" width="32" x="-32"></rect><text dy=".35em" x="-26">18</text></g><g class="key" transform="translate(-300,60)"><rect ry="6" rx="6" y="-10" height="20" width="32" x="-32"></rect><text dy=".35em" x="-26">2</text></g><g class="datum" transform="translate(-200,84)"><rect ry="6" rx="6" y="-10" height="20" width="32" x="-32"></rect><text dy=".35em" x="-26">23</text></g><g class="key" transform="translate(-300,84)"><rect ry="6" rx="6" y="-10" height="20" width="32" x="-32"></rect><text dy=".35em" x="-26">3</text></g><g class="datum" transform="translate(-200,108)"><rect ry="6" rx="6" y="-10" height="20" width="32" x="-32"></rect><text dy=".35em" x="-26">42</text></g><g class="key" transform="translate(-300,108)"><rect ry="6" rx="6" y="-10" height="20" width="32" x="-32"></rect><text dy=".35em" x="-26">4</text></g></g></g></svg>